<?xml version="1.0" encoding="iso-8859-1"?>
<!-- Generator: Adobe Illustrator 19.0.0, SVG Export Plug-In . SVG Version: 6.00 Build 0)  -->
<svg version="1.1" id="Capa_1" xmlns="http://www.w3.org/2000/svg" xmlns:xlink="http://www.w3.org/1999/xlink" x="0px" y="0px"
	 viewBox="0 0 472 472" style="enable-background:new 0 0 472 472;" xml:space="preserve">
<g>
	<rect x="184" y="252" style="fill:#F1E200;" width="88" height="16"/>
	<rect x="96" y="252" style="fill:#F1E200;" width="88" height="16"/>
</g>
<path style="fill:#AEBBC4;" d="M315.55,308c2.755,4.726,4.45,10.145,4.45,16s-1.694,11.274-4.45,16H336v-32H315.55z"/>
<rect x="160" y="116" style="fill:#F1E200;" width="48" height="24"/>
<path style="fill:#039D7B;" d="M392,303.056c5.87-6.718,14.396-11.056,24-11.056c17.648,0,32,14.352,32,32h24v-48h-80V303.056z"/>
<g>
	<rect x="240" y="116" style="fill:#F1E200;" width="48" height="24"/>
	<rect x="80" y="116" style="fill:#F1E200;" width="48" height="24"/>
</g>
<path style="fill:#AEBBC4;" d="M388.45,308H368v32h20.45c-2.755-4.726-4.45-10.145-4.45-16S385.694,312.726,388.45,308z"/>
<path style="fill:#A0D92A;" d="M56,220h24h88h8v-9.475c-9.292-3.313-16-12.11-16-22.525c0-1.494,0.179-2.943,0.441-4.362
	l-15.082-8.708l8-13.859l15.152,8.75c4.192-3.577,9.558-5.82,15.488-5.82s11.296,2.243,15.488,5.82l15.152-8.75l8,13.859
	l-15.082,8.708c0.262,1.419,0.441,2.868,0.441,4.362c0,10.416-6.708,19.213-16,22.526V220h64h16c30.928,0,56-25.072,56-56
	c0-2.647-0.247-5.231-0.603-7.781C317.279,146.198,303.366,140,288,140h-48h-32h-48h-32H80h-8c-30.928,0-56,25.072-56,56
	c0,2.647,0.247,5.23,0.603,7.78C26.721,213.802,40.633,220,56,220z"/>
<path style="fill:#84B323;" d="M272,220h-16h-64v8h-16v-8h-8H80H56c-15.367,0-29.279-6.198-39.397-16.22
	C20.398,231.016,43.719,252,72,252h24h88h88h16c30.928,0,56-25.072,56-56c0-15.562-6.355-29.632-16.603-39.781
	c0.355,2.549,0.603,5.133,0.603,7.781C328,194.928,302.928,220,272,220z"/>
<g>
	<circle style="fill:#F1E200;" cx="288" cy="324" r="16"/>
	<circle style="fill:#F1E200;" cx="32" cy="324" r="16"/>
	<circle style="fill:#F1E200;" cx="104" cy="324" r="16"/>
	<circle style="fill:#F1E200;" cx="416" cy="324" r="16"/>
</g>
<g>
	<rect x="336" y="308" style="fill:#25C656;" width="32" height="32"/>
	<polygon style="fill:#25C656;" points="424,244 424,204 456,204 472,204 464,180 392,180 392,276 472,276 472,244 456,244 	"/>
</g>
<rect x="424" y="204" style="fill:#D0DFEA;" width="32" height="40"/>
<circle style="fill:#F1E200;" cx="184" cy="188" r="8"/>
<g>
	<path style="fill:#183F5E;" d="M315.55,308c-5.55-9.519-15.757-16-27.55-16c-17.648,0-32,14.352-32,32s14.352,32,32,32
		c11.793,0,22-6.481,27.55-16c2.755-4.726,4.45-10.145,4.45-16S318.306,312.726,315.55,308z M272,324c0-8.82,7.18-16,16-16
		s16,7.18,16,16s-7.18,16-16,16S272,332.82,272,324z"/>
	<path style="fill:#183F5E;" d="M416,292c-9.604,0-18.13,4.338-24,11.056c-1.338,1.532-2.52,3.177-3.55,4.944
		c-2.755,4.726-4.45,10.145-4.45,16s1.694,11.274,4.45,16c5.55,9.519,15.757,16,27.55,16c17.648,0,32-14.352,32-32
		S433.648,292,416,292z M416,340c-8.82,0-16-7.18-16-16s7.18-16,16-16s16,7.18,16,16S424.82,340,416,340z"/>
</g>
<g>
	<rect x="152" y="300" style="fill:#25C656;" width="88" height="16"/>
	<rect x="152" y="332" style="fill:#25C656;" width="88" height="16"/>
	<path style="fill:#25C656;" d="M192,228v-8v-9.474c9.292-3.313,16-12.11,16-22.526c0-1.494-0.179-2.943-0.441-4.362l15.082-8.708
		l-8-13.859l-15.152,8.75c-4.192-3.577-9.558-5.82-15.488-5.82s-11.296,2.243-15.488,5.82l-15.152-8.75l-8,13.859l15.082,8.708
		C160.179,185.057,160,186.506,160,188c0,10.416,6.708,19.212,16,22.525V220v8H192z M184,180c4.414,0,8,3.586,8,8s-3.586,8-8,8
		s-8-3.586-8-8S179.586,180,184,180z"/>
</g>
<polygon style="fill:#039D7B;" points="96,268 24,268 24,284 336,284 336,268 272,268 184,268 "/>
<path style="fill:#AEBBC4;" d="M76.45,308H59.55c2.755,4.726,4.45,10.145,4.45,16s-1.694,11.274-4.45,16H76.45
	c-2.755-4.726-4.45-10.145-4.45-16S73.694,312.726,76.45,308z"/>
<g>
	<path style="fill:#183F5E;" d="M59.55,308C54,298.481,43.793,292,32,292c-17.648,0-32,14.352-32,32s14.352,32,32,32
		c11.793,0,22-6.481,27.55-16c2.755-4.726,4.45-10.145,4.45-16S62.306,312.726,59.55,308z M16,324c0-8.82,7.18-16,16-16
		s16,7.18,16,16s-7.18,16-16,16S16,332.82,16,324z"/>
	<path style="fill:#183F5E;" d="M104,292c-11.793,0-22,6.481-27.55,16c-2.755,4.726-4.45,10.145-4.45,16s1.694,11.274,4.45,16
		c5.55,9.519,15.757,16,27.55,16c17.648,0,32-14.352,32-32S121.648,292,104,292z M104,340c-8.82,0-16-7.18-16-16s7.18-16,16-16
		s16,7.18,16,16S112.82,340,104,340z"/>
</g>
<rect x="456" y="204" style="fill:#AEBBC4;" width="16" height="40"/>
<g>
</g>
<g>
</g>
<g>
</g>
<g>
</g>
<g>
</g>
<g>
</g>
<g>
</g>
<g>
</g>
<g>
</g>
<g>
</g>
<g>
</g>
<g>
</g>
<g>
</g>
<g>
</g>
<g>
</g>
</svg>
